G04*
G04 #@! TF.GenerationSoftware,Altium Limited,Altium Designer,25.8.1 (18)*
G04*
G04 Layer_Color=65535*
%FSLAX44Y44*%
%MOMM*%
G71*
G04*
G04 #@! TF.SameCoordinates,220DD8DD-A9B0-4AC3-BD9C-64780996674F*
G04*
G04*
G04 #@! TF.FilePolarity,Positive*
G04*
G01*
G75*
%ADD10C,0.2500*%
%ADD11C,0.2540*%
%ADD12C,0.2000*%
%ADD13C,0.2032*%
%ADD14R,1.9050X1.2700*%
G36*
X111720Y88730D02*
Y91270D01*
X99020D01*
Y88730D01*
X111720D01*
D01*
D02*
G37*
G36*
X523200Y91270D02*
X528280D01*
Y88730D01*
X523200D01*
Y83650D01*
X520660D01*
Y88730D01*
X515580D01*
Y91270D01*
X520660D01*
Y96350D01*
X523200D01*
Y91270D01*
D02*
G37*
D10*
X861250Y120500D02*
G03*
X861250Y120500I-1250J0D01*
G01*
X15750Y412500D02*
G03*
X15750Y412500I-1250J0D01*
G01*
X406634Y275056D02*
G03*
X406634Y275056I-1250J0D01*
G01*
X723250Y75000D02*
G03*
X723250Y75000I-1250J0D01*
G01*
D11*
X949477Y128276D02*
G03*
X949477Y128276I-11709J0D01*
G01*
X847800Y351600D02*
G03*
X847800Y351600I-12700J0D01*
G01*
Y300800D02*
G03*
X847800Y300800I-12700J0D01*
G01*
X536650Y364300D02*
G03*
X536650Y364300I-6350J0D01*
G01*
Y338900D02*
G03*
X536650Y338900I-6350J0D01*
G01*
Y313500D02*
G03*
X536650Y313500I-6350J0D01*
G01*
Y288100D02*
G03*
X536650Y288100I-6350J0D01*
G01*
X593050Y118812D02*
Y153500D01*
X46950D02*
X593050D01*
X46950Y118812D02*
Y153500D01*
X553463Y26500D02*
X593050D01*
Y61189D01*
X46950Y26500D02*
Y60790D01*
Y26500D02*
X550536D01*
X114708Y180394D02*
Y458396D01*
Y180394D02*
X187200D01*
Y217909D01*
X315699D01*
Y180394D02*
Y217909D01*
Y180394D02*
X386692D01*
Y458396D01*
X114708D02*
X386692D01*
X886968Y95256D02*
Y179076D01*
Y95256D02*
X904748Y77476D01*
X955548Y163836D02*
X970788D01*
X963168Y156851D02*
Y170821D01*
X961898Y84461D02*
Y98431D01*
X886968Y179076D02*
X925456D01*
X950080D02*
X988568D01*
Y77476D02*
Y179076D01*
X904748Y77476D02*
X925449D01*
X950087D02*
X988568D01*
X469340Y430086D02*
X997660D01*
X469340Y222314D02*
Y430086D01*
Y222314D02*
X997660D01*
Y430086D01*
X816050Y313500D02*
X854150D01*
X816050Y288100D02*
Y313500D01*
Y288100D02*
X854150D01*
Y313500D01*
X816050Y364300D02*
X854150D01*
X816050Y338900D02*
Y364300D01*
Y338900D02*
X854150D01*
Y364300D01*
X676350Y326200D02*
X733500Y269050D01*
X676350Y326200D02*
X733500Y383350D01*
X790650Y326200D01*
X733500Y269050D02*
X790650Y326200D01*
X915110Y377000D02*
X996390D01*
X915110Y275400D02*
Y377000D01*
Y275400D02*
X996390D01*
X8398Y175004D02*
Y159768D01*
X16016D01*
X18555Y162308D01*
Y164847D01*
X16016Y167386D01*
X8398D01*
X16016D01*
X18555Y169925D01*
Y172464D01*
X16016Y175004D01*
X8398D01*
X23633Y159768D02*
Y169925D01*
X28712Y175004D01*
X33790Y169925D01*
Y159768D01*
Y167386D01*
X23633D01*
X38869Y175004D02*
X49025D01*
X43947D01*
Y159768D01*
X54104Y175004D02*
X64260D01*
X59182D01*
Y159768D01*
X79495Y175004D02*
X69339D01*
Y159768D01*
X79495D01*
X69339Y167386D02*
X74417D01*
X84574Y159768D02*
Y175004D01*
X92191D01*
X94731Y172464D01*
Y167386D01*
X92191Y164847D01*
X84574D01*
X89652D02*
X94731Y159768D01*
X99809Y175004D02*
Y172464D01*
X104887Y167386D01*
X109966Y172464D01*
Y175004D01*
X104887Y167386D02*
Y159768D01*
X652892Y124236D02*
X651226Y125902D01*
X647894D01*
X646227Y124236D01*
Y117572D01*
X647894Y115906D01*
X651226D01*
X652892Y117572D01*
X662889Y125902D02*
X659556Y124236D01*
X656224Y120904D01*
Y117572D01*
X657890Y115906D01*
X661223D01*
X662889Y117572D01*
Y119238D01*
X661223Y120904D01*
X656224D01*
X794959Y108286D02*
Y118282D01*
X799958D01*
X801624Y116616D01*
Y113284D01*
X799958Y111618D01*
X794959D01*
X798292D02*
X801624Y108286D01*
X804956D02*
X808288D01*
X806622D01*
Y118282D01*
X804956Y116616D01*
X817372Y63724D02*
Y70388D01*
X815706Y72054D01*
X812374D01*
X810707Y70388D01*
Y63724D01*
X812374Y62058D01*
X815706D01*
X814040Y65390D02*
X817372Y62058D01*
X815706D02*
X817372Y63724D01*
X820704Y62058D02*
X824036D01*
X822370D01*
Y72054D01*
X820704Y70388D01*
X701995Y34208D02*
Y24212D01*
X708660D01*
X711992D02*
X715324D01*
X713658D01*
Y34208D01*
X711992Y32542D01*
X856173Y40812D02*
Y30816D01*
X861172D01*
X862838Y32482D01*
Y39146D01*
X861172Y40812D01*
X856173D01*
X866170Y30816D02*
X869502D01*
X867836D01*
Y40812D01*
X866170Y39146D01*
X116856Y479296D02*
Y464061D01*
X124474D01*
X127013Y466600D01*
Y476756D01*
X124474Y479296D01*
X116856D01*
X132091D02*
X137169D01*
X134630D01*
Y464061D01*
X132091D01*
X137169D01*
X154944Y476756D02*
X152404Y479296D01*
X147326D01*
X144787Y476756D01*
Y474217D01*
X147326Y471678D01*
X152404D01*
X154944Y469139D01*
Y466600D01*
X152404Y464061D01*
X147326D01*
X144787Y466600D01*
X160022Y464061D02*
Y479296D01*
X167640D01*
X170179Y476756D01*
Y471678D01*
X167640Y469139D01*
X160022D01*
X175257Y479296D02*
Y464061D01*
X185414D01*
X190492D02*
Y474217D01*
X195571Y479296D01*
X200649Y474217D01*
Y464061D01*
Y471678D01*
X190492D01*
X205727Y479296D02*
Y476756D01*
X210806Y471678D01*
X215884Y476756D01*
Y479296D01*
X210806Y471678D02*
Y464061D01*
X19310Y443989D02*
X24388D01*
X21849D01*
Y428755D01*
X19310D01*
X24388D01*
X32006D02*
Y443989D01*
X37084Y438911D01*
X42163Y443989D01*
Y428755D01*
X47241Y443989D02*
Y431294D01*
X49780Y428755D01*
X54859D01*
X57398Y431294D01*
Y443989D01*
X85456Y438942D02*
X83790Y440608D01*
X80457D01*
X78791Y438942D01*
Y432278D01*
X80457Y430612D01*
X83790D01*
X85456Y432278D01*
X88788Y438942D02*
X90454Y440608D01*
X93786D01*
X95453Y438942D01*
Y437276D01*
X93786Y435610D01*
X92120D01*
X93786D01*
X95453Y433944D01*
Y432278D01*
X93786Y430612D01*
X90454D01*
X88788Y432278D01*
X637902Y440506D02*
Y455741D01*
X645519D01*
X648059Y453202D01*
Y448124D01*
X645519Y445585D01*
X637902D01*
X653137Y450663D02*
Y443046D01*
X655676Y440506D01*
X663294D01*
Y450663D01*
X668372Y440506D02*
Y450663D01*
X675990D01*
X678529Y448124D01*
Y440506D01*
X693764Y450663D02*
X686146D01*
X683607Y448124D01*
Y443046D01*
X686146Y440506D01*
X693764D01*
X698842Y455741D02*
Y440506D01*
Y448124D01*
X701382Y450663D01*
X706460D01*
X708999Y448124D01*
Y440506D01*
X739469Y453202D02*
X736930Y455741D01*
X731852D01*
X729312Y453202D01*
Y450663D01*
X731852Y448124D01*
X736930D01*
X739469Y445585D01*
Y443046D01*
X736930Y440506D01*
X731852D01*
X729312Y443046D01*
X744548Y435428D02*
Y450663D01*
X752165D01*
X754704Y448124D01*
Y443046D01*
X752165Y440506D01*
X744548D01*
X767400D02*
X762322D01*
X759783Y443046D01*
Y448124D01*
X762322Y450663D01*
X767400D01*
X769939Y448124D01*
Y445585D01*
X759783D01*
X782635Y440506D02*
X777557D01*
X775018Y443046D01*
Y448124D01*
X777557Y450663D01*
X782635D01*
X785174Y448124D01*
Y445585D01*
X775018D01*
X800409Y455741D02*
Y440506D01*
X792792D01*
X790253Y443046D01*
Y448124D01*
X792792Y450663D01*
X800409D01*
X830880Y453202D02*
X828340Y455741D01*
X823262D01*
X820723Y453202D01*
Y443046D01*
X823262Y440506D01*
X828340D01*
X830880Y443046D01*
X838497Y450663D02*
X843576D01*
X846115Y448124D01*
Y440506D01*
X838497D01*
X835958Y443046D01*
X838497Y445585D01*
X846115D01*
X851193Y440506D02*
X856271D01*
X853732D01*
Y455741D01*
X851193D01*
X874046Y450663D02*
X866428D01*
X863889Y448124D01*
Y443046D01*
X866428Y440506D01*
X874046D01*
X879124Y450663D02*
Y443046D01*
X881663Y440506D01*
X889281D01*
Y450663D01*
X894359Y440506D02*
X899437D01*
X896898D01*
Y455741D01*
X894359D01*
X909594Y450663D02*
X914672D01*
X917212Y448124D01*
Y440506D01*
X909594D01*
X907055Y443046D01*
X909594Y445585D01*
X917212D01*
X924829Y453202D02*
Y450663D01*
X922290D01*
X927368D01*
X924829D01*
Y443046D01*
X927368Y440506D01*
X937525D02*
X942603D01*
X945143Y443046D01*
Y448124D01*
X942603Y450663D01*
X937525D01*
X934986Y448124D01*
Y443046D01*
X937525Y440506D01*
X950221Y450663D02*
Y440506D01*
Y445585D01*
X952760Y448124D01*
X955299Y450663D01*
X957839D01*
X896634Y205737D02*
Y190502D01*
X904251D01*
X906791Y193042D01*
Y195581D01*
X904251Y198120D01*
X896634D01*
X904251D01*
X906791Y200659D01*
Y203198D01*
X904251Y205737D01*
X896634D01*
X911869D02*
Y193042D01*
X914408Y190502D01*
X919487D01*
X922026Y193042D01*
Y205737D01*
X927104D02*
X937261D01*
Y203198D01*
X927104Y193042D01*
Y190502D01*
X937261D01*
X942339Y205737D02*
X952496D01*
Y203198D01*
X942339Y193042D01*
Y190502D01*
X952496D01*
X967731Y205737D02*
X957574D01*
Y190502D01*
X967731D01*
X957574Y198120D02*
X962653D01*
X972809Y190502D02*
Y205737D01*
X980427D01*
X982966Y203198D01*
Y198120D01*
X980427Y195581D01*
X972809D01*
X977888D02*
X982966Y190502D01*
X637902Y482741D02*
Y467506D01*
X645519D01*
X648059Y470046D01*
Y480202D01*
X645519Y482741D01*
X637902D01*
X655676Y477663D02*
X660755D01*
X663294Y475124D01*
Y467506D01*
X655676D01*
X653137Y470046D01*
X655676Y472585D01*
X663294D01*
X668372Y467506D02*
Y477663D01*
X675990D01*
X678529Y475124D01*
Y467506D01*
X683607D02*
X688686D01*
X686146D01*
Y477663D01*
X683607D01*
X703921Y467506D02*
X698842D01*
X696303Y470046D01*
Y475124D01*
X698842Y477663D01*
X703921D01*
X706460Y475124D01*
Y472585D01*
X696303D01*
X711538Y467506D02*
X716617D01*
X714077D01*
Y482741D01*
X711538D01*
X739469Y467506D02*
Y482741D01*
X744548Y477663D01*
X749626Y482741D01*
Y467506D01*
X762322D02*
X757243D01*
X754704Y470046D01*
Y475124D01*
X757243Y477663D01*
X762322D01*
X764861Y475124D01*
Y472585D01*
X754704D01*
X769939Y482741D02*
Y467506D01*
Y475124D01*
X772478Y477663D01*
X777557D01*
X780096Y475124D01*
Y467506D01*
X787713Y477663D02*
X792792D01*
X795331Y475124D01*
Y467506D01*
X787713D01*
X785174Y470046D01*
X787713Y472585D01*
X795331D01*
X800409Y467506D02*
Y477663D01*
X808027D01*
X810566Y475124D01*
Y467506D01*
X815645Y477663D02*
Y470046D01*
X818184Y467506D01*
X825801D01*
Y464967D01*
X823262Y462428D01*
X820723D01*
X825801Y467506D02*
Y477663D01*
X479052Y448054D02*
X476513Y450593D01*
X471435D01*
X468895Y448054D01*
Y445515D01*
X471435Y442976D01*
X476513D01*
X479052Y440437D01*
Y437898D01*
X476513Y435359D01*
X471435D01*
X468895Y437898D01*
X484131Y450593D02*
X494287D01*
X489209D01*
Y435359D01*
X499366D02*
Y450593D01*
X504444Y445515D01*
X509522Y450593D01*
Y435359D01*
X514601Y448054D02*
X517140Y450593D01*
X522218D01*
X524757Y448054D01*
Y445515D01*
X522218Y442976D01*
X519679D01*
X522218D01*
X524757Y440437D01*
Y437898D01*
X522218Y435359D01*
X517140D01*
X514601Y437898D01*
X539992Y435359D02*
X529836D01*
X539992Y445515D01*
Y448054D01*
X537453Y450593D01*
X532375D01*
X529836Y448054D01*
X403106Y395476D02*
X400567Y398016D01*
X395489D01*
X392949Y395476D01*
Y392937D01*
X395489Y390398D01*
X400567D01*
X403106Y387859D01*
Y385320D01*
X400567Y382780D01*
X395489D01*
X392949Y385320D01*
X408185Y398016D02*
X418341D01*
X413263D01*
Y382780D01*
X423420D02*
Y392937D01*
X428498Y398016D01*
X433576Y392937D01*
Y382780D01*
Y390398D01*
X423420D01*
X438655Y382780D02*
Y398016D01*
X446272D01*
X448811Y395476D01*
Y390398D01*
X446272Y387859D01*
X438655D01*
X443733D02*
X448811Y382780D01*
X453890Y398016D02*
X464047D01*
X458968D01*
Y382780D01*
X757987Y112858D02*
Y122854D01*
X762986D01*
X764652Y121188D01*
Y117856D01*
X762986Y116190D01*
X757987D01*
X761320D02*
X764652Y112858D01*
X774649Y122854D02*
X771316Y121188D01*
X767984Y117856D01*
Y114524D01*
X769650Y112858D01*
X772982D01*
X774649Y114524D01*
Y116190D01*
X772982Y117856D01*
X767984D01*
X736669Y72002D02*
Y81998D01*
X741668D01*
X743334Y80332D01*
Y77000D01*
X741668Y75334D01*
X736669D01*
X740002D02*
X743334Y72002D01*
X753331Y81998D02*
X746666D01*
Y77000D01*
X749998Y78666D01*
X751665D01*
X753331Y77000D01*
Y73668D01*
X751665Y72002D01*
X748332D01*
X746666Y73668D01*
X553771Y453726D02*
Y463722D01*
X558770D01*
X560436Y462056D01*
Y458724D01*
X558770Y457058D01*
X553771D01*
X557104D02*
X560436Y453726D01*
X568767D02*
Y463722D01*
X563768Y458724D01*
X570433D01*
X590601Y454234D02*
Y464230D01*
X595600D01*
X597266Y462564D01*
Y459232D01*
X595600Y457566D01*
X590601D01*
X593934D02*
X597266Y454234D01*
X600598Y462564D02*
X602264Y464230D01*
X605597D01*
X607263Y462564D01*
Y460898D01*
X605597Y459232D01*
X603930D01*
X605597D01*
X607263Y457566D01*
Y455900D01*
X605597Y454234D01*
X602264D01*
X600598Y455900D01*
X767385Y18116D02*
Y28112D01*
X772384D01*
X774050Y26446D01*
Y23114D01*
X772384Y21448D01*
X767385D01*
X770718D02*
X774050Y18116D01*
X784047D02*
X777382D01*
X784047Y24780D01*
Y26446D01*
X782381Y28112D01*
X779048D01*
X777382Y26446D01*
X695056Y173258D02*
X693390Y174924D01*
X690058D01*
X688391Y173258D01*
Y166594D01*
X690058Y164928D01*
X693390D01*
X695056Y166594D01*
X705053Y174924D02*
X698388D01*
Y169926D01*
X701720Y171592D01*
X703387D01*
X705053Y169926D01*
Y166594D01*
X703387Y164928D01*
X700054D01*
X698388Y166594D01*
X74788Y354360D02*
X73122Y356026D01*
X69790D01*
X68123Y354360D01*
Y347696D01*
X69790Y346030D01*
X73122D01*
X74788Y347696D01*
X83118Y346030D02*
Y356026D01*
X78120Y351028D01*
X84785D01*
X96124Y367060D02*
X94458Y368726D01*
X91125D01*
X89459Y367060D01*
Y360396D01*
X91125Y358730D01*
X94458D01*
X96124Y360396D01*
X106121Y358730D02*
X99456D01*
X106121Y365394D01*
Y367060D01*
X104454Y368726D01*
X101122D01*
X99456Y367060D01*
X19558Y357154D02*
X17892Y358820D01*
X14560D01*
X12894Y357154D01*
Y350490D01*
X14560Y348824D01*
X17892D01*
X19558Y350490D01*
X22890Y348824D02*
X26223D01*
X24556D01*
Y358820D01*
X22890Y357154D01*
X686573Y135126D02*
Y119890D01*
X694191D01*
X696730Y122430D01*
Y124969D01*
X694191Y127508D01*
X686573D01*
X694191D01*
X696730Y130047D01*
Y132586D01*
X694191Y135126D01*
X686573D01*
X709426D02*
X704348D01*
X701809Y132586D01*
Y122430D01*
X704348Y119890D01*
X709426D01*
X711965Y122430D01*
Y132586D01*
X709426Y135126D01*
X724661D02*
X719583D01*
X717044Y132586D01*
Y122430D01*
X719583Y119890D01*
X724661D01*
X727200Y122430D01*
Y132586D01*
X724661Y135126D01*
X742435Y132586D02*
X739896Y135126D01*
X734818D01*
X732279Y132586D01*
Y130047D01*
X734818Y127508D01*
X739896D01*
X742435Y124969D01*
Y122430D01*
X739896Y119890D01*
X734818D01*
X732279Y122430D01*
X747514Y135126D02*
X757671D01*
X752592D01*
Y119890D01*
D12*
X648219Y74211D02*
Y107273D01*
X671781Y74211D02*
Y107273D01*
X805750Y55500D02*
X819000D01*
Y24500D02*
Y32250D01*
Y47750D02*
Y55500D01*
X805750Y24500D02*
X819000D01*
X801000Y38250D02*
Y41750D01*
X700448Y61000D02*
X725030D01*
X700448Y39000D02*
X725030D01*
X845250Y56250D02*
Y103750D01*
X872500D02*
X874750D01*
X845250D02*
X847500D01*
X874750Y56250D02*
Y103750D01*
X872500Y56250D02*
X874750D01*
X845250D02*
X847500D01*
X846000Y83500D02*
X874000D01*
X62250Y421500D02*
X65500D01*
Y418250D02*
Y421500D01*
Y378500D02*
Y381750D01*
X62250Y378500D02*
X65500D01*
X22500D02*
X25750D01*
X22500D02*
Y381750D01*
Y421500D02*
X25750D01*
X22500Y418250D02*
Y421500D01*
X74719Y396469D02*
Y425531D01*
X97281Y396469D02*
Y425531D01*
X397884Y300806D02*
Y357306D01*
X415634Y359056D02*
X440134D01*
X457884Y300806D02*
Y357306D01*
X415634Y299056D02*
X440134D01*
X771250Y32939D02*
Y53061D01*
X788750Y32939D02*
Y53061D01*
X699522Y143000D02*
X705995D01*
X699522Y159000D02*
X705995D01*
X750250Y95500D02*
Y112500D01*
X733750Y95500D02*
Y112500D01*
X707500Y77500D02*
X712500D01*
X707500Y108500D02*
X712500D01*
Y77500D02*
Y108500D01*
X707500Y77500D02*
Y108500D01*
D13*
X855968Y282968D02*
Y272811D01*
X850890D01*
X849197Y274504D01*
Y277890D01*
X850890Y279582D01*
X855968D01*
X852582D02*
X849197Y282968D01*
X839040Y272811D02*
X845811D01*
Y282968D01*
X839040D01*
X845811Y277890D02*
X842426D01*
X828883Y274504D02*
X830576Y272811D01*
X833962D01*
X835655Y274504D01*
Y276197D01*
X833962Y277890D01*
X830576D01*
X828883Y279582D01*
Y281275D01*
X830576Y282968D01*
X833962D01*
X835655Y281275D01*
X818727Y272811D02*
X825498D01*
Y282968D01*
X818727D01*
X825498Y277890D02*
X822112D01*
X815341Y272811D02*
X808570D01*
X811956D01*
Y282968D01*
X857960Y374463D02*
Y384620D01*
X852882D01*
X851189Y382927D01*
Y381234D01*
X852882Y379542D01*
X857960D01*
X852882D01*
X851189Y377849D01*
Y376156D01*
X852882Y374463D01*
X857960D01*
X842725D02*
X846110D01*
X847803Y376156D01*
Y382927D01*
X846110Y384620D01*
X842725D01*
X841032Y382927D01*
Y376156D01*
X842725Y374463D01*
X832568D02*
X835954D01*
X837646Y376156D01*
Y382927D01*
X835954Y384620D01*
X832568D01*
X830875Y382927D01*
Y376156D01*
X832568Y374463D01*
X827490D02*
X820719D01*
X824104D01*
Y384620D01*
X817333Y376156D02*
X815640Y374463D01*
X812255D01*
X810562Y376156D01*
Y382927D01*
X812255Y384620D01*
X815640D01*
X817333Y382927D01*
Y376156D01*
X581100Y350330D02*
Y340173D01*
X576022D01*
X574329Y341866D01*
Y345252D01*
X576022Y346944D01*
X581100D01*
X570943Y350330D02*
Y343559D01*
X567558Y340173D01*
X564172Y343559D01*
Y350330D01*
Y345252D01*
X570943D01*
X560787Y350330D02*
X557401D01*
X559094D01*
Y340173D01*
X560787Y341866D01*
X552323D02*
X550630Y340173D01*
X547244D01*
X545551Y341866D01*
Y343559D01*
X547244Y345252D01*
X548937D01*
X547244D01*
X545551Y346944D01*
Y348637D01*
X547244Y350330D01*
X550630D01*
X552323Y348637D01*
X581100Y324930D02*
Y314773D01*
X576022D01*
X574329Y316466D01*
Y319852D01*
X576022Y321544D01*
X581100D01*
X570943Y324930D02*
Y318159D01*
X567558Y314773D01*
X564172Y318159D01*
Y324930D01*
Y319852D01*
X570943D01*
X560787Y324930D02*
X557401D01*
X559094D01*
Y314773D01*
X560787Y316466D01*
X547244Y324930D02*
Y314773D01*
X552323Y319852D01*
X545551D01*
X517600Y367266D02*
X515907Y365573D01*
X512522D01*
X510829Y367266D01*
Y368959D01*
X512522Y370652D01*
X514214D01*
X512522D01*
X510829Y372344D01*
Y374037D01*
X512522Y375730D01*
X515907D01*
X517600Y374037D01*
X507443Y365573D02*
Y372344D01*
X504058Y375730D01*
X500672Y372344D01*
Y365573D01*
X497286Y367266D02*
X495594Y365573D01*
X492208D01*
X490515Y367266D01*
Y368959D01*
X492208Y370652D01*
X493901D01*
X492208D01*
X490515Y372344D01*
Y374037D01*
X492208Y375730D01*
X495594D01*
X497286Y374037D01*
X512268Y343666D02*
X513601Y342333D01*
X516267D01*
X517600Y343666D01*
Y344998D01*
X516267Y346331D01*
X513601D01*
X512268Y347664D01*
Y348997D01*
X513601Y350330D01*
X516267D01*
X517600Y348997D01*
X509603Y342333D02*
Y350330D01*
X506937Y347664D01*
X504271Y350330D01*
Y342333D01*
X501605D02*
Y350330D01*
X497606D01*
X496273Y348997D01*
Y343666D01*
X497606Y342333D01*
X501605D01*
X493608D02*
X490942D01*
X492275D01*
Y350330D01*
X493608D01*
X490942D01*
X482944Y342333D02*
X485610D01*
X486943Y343666D01*
Y348997D01*
X485610Y350330D01*
X482944D01*
X481612Y348997D01*
Y343666D01*
X482944Y342333D01*
X512268Y318265D02*
X513601Y316933D01*
X516267D01*
X517600Y318265D01*
Y319598D01*
X516267Y320931D01*
X513601D01*
X512268Y322264D01*
Y323597D01*
X513601Y324930D01*
X516267D01*
X517600Y323597D01*
X509603Y316933D02*
Y324930D01*
X506937Y322264D01*
X504271Y324930D01*
Y316933D01*
X496273Y318265D02*
X497606Y316933D01*
X500272D01*
X501605Y318265D01*
Y323597D01*
X500272Y324930D01*
X497606D01*
X496273Y323597D01*
X493608Y316933D02*
Y324930D01*
X488276D01*
X485610Y316933D02*
Y324930D01*
Y322264D01*
X480279Y316933D01*
X484277Y320931D01*
X480279Y324930D01*
X510829Y291066D02*
X512522Y289373D01*
X515907D01*
X517600Y291066D01*
Y297837D01*
X515907Y299530D01*
X512522D01*
X510829Y297837D01*
Y294452D01*
X514214D01*
X507443Y299530D02*
Y289373D01*
X500672Y299530D01*
Y289373D01*
X497286D02*
Y299530D01*
X492208D01*
X490515Y297837D01*
Y291066D01*
X492208Y289373D01*
X497286D01*
X604809Y277096D02*
X606502Y275403D01*
X609887D01*
X611580Y277096D01*
Y283867D01*
X609887Y285560D01*
X606502D01*
X604809Y283867D01*
X601423Y285560D02*
X598038D01*
X599730D01*
Y275403D01*
X601423Y277096D01*
X592959D02*
X591267Y275403D01*
X587881D01*
X586188Y277096D01*
Y278789D01*
X587881Y280482D01*
X589574D01*
X587881D01*
X586188Y282174D01*
Y283867D01*
X587881Y285560D01*
X591267D01*
X592959Y283867D01*
X617930Y387160D02*
Y377003D01*
X612852D01*
X611159Y378696D01*
Y382082D01*
X612852Y383774D01*
X617930D01*
X607773Y377003D02*
Y387160D01*
X604388Y383774D01*
X601002Y387160D01*
Y377003D01*
X597617Y387160D02*
Y377003D01*
X592538D01*
X590845Y378696D01*
Y382082D01*
X592538Y383774D01*
X597617D01*
X594231D02*
X590845Y387160D01*
D14*
X571575Y376997D02*
D03*
Y275397D02*
D03*
M02*
