M48
;Layer_Color=9474304
;FILE_FORMAT=4:3
METRIC,LZ
;TYPE=PLATED
T01F00S00C0.200
T02F00S00C0.300
T03F00S00C0.914
T04F00S00C1.050
%
T01
X000385Y003945
X000495
Y004055
X000385
T02
X00038Y00042
X0002743Y0014554
X0004216Y0022301
X0004343Y0028499
X0005969Y0034315
X000508Y0036855
X00027Y00369
X00096Y00374
X0016231Y001684
X0015316Y0007874
X0028194Y0007468
X0035077Y001651
X0042494Y0023292
X004478Y0026924
X0051664Y0017704
X0063373Y0016459
X00731Y00151
X0072Y00214
X0074Y00081
X0079Y0009
X00781Y00102
X00761Y00036
X00661Y0006
X0064033Y0002972
X0043637Y000795
X0083287Y0016662
X0094894Y0022758
X008636Y0001854
X0085598Y0046203
X0069621Y0046304
X00619Y00446
X0058395Y0045847
X0053365Y0045923
X004191Y0044196
X00306Y00444
X00262Y00463
X00193Y00445
X0006655Y0043815
X0004496Y0046634
T03
X004922Y0025
X005176
X00543
X005684
X005938
X006192
X006446
X0067
X006954
X007208
X007462
X007716
X00797
X008224
X008478
X008732
X008986
X00924
X009494
X009748
Y004024
X009494
X00924
X008986
X008732
X008478
X008224
X00797
X007716
X007462
X007208
X006954
X0067
X006446
X006192
X005938
X005684
X00543
X005176
X004922
T04
X002126Y00444
X00238
X002634
X002888
M30
