G04*
G04 #@! TF.GenerationSoftware,Altium Limited,Altium Designer,25.8.1 (18)*
G04*
G04 Layer_Physical_Order=3*
G04 Layer_Color=16440176*
%FSLAX44Y44*%
%MOMM*%
G71*
G04*
G04 #@! TF.SameCoordinates,220DD8DD-A9B0-4AC3-BD9C-64780996674F*
G04*
G04*
G04 #@! TF.FilePolarity,Positive*
G04*
G01*
G75*
%ADD56C,1.8000*%
%ADD57C,1.5240*%
%ADD58R,1.9050X1.9050*%
%ADD59C,0.5000*%
%ADD60C,0.6000*%
G36*
X951405Y478454D02*
X951348Y478168D01*
Y474840D01*
X951998Y471575D01*
X953271Y468499D01*
X955121Y465731D01*
X957475Y463377D01*
X960243Y461527D01*
X963318Y460253D01*
X966583Y459604D01*
X969912D01*
X973177Y460253D01*
X976253Y461527D01*
X977165Y462137D01*
X979206Y461095D01*
X980000Y457102D01*
Y454600D01*
Y412825D01*
X964375D01*
Y391975D01*
X980000D01*
Y260425D01*
X964375D01*
Y239575D01*
X980000D01*
Y45653D01*
X979793Y45502D01*
X977819Y45317D01*
X975465Y47671D01*
X972697Y49521D01*
X969622Y50795D01*
X966357Y51444D01*
X963027D01*
X959762Y50795D01*
X956687Y49521D01*
X953919Y47671D01*
X951565Y45317D01*
X949715Y42549D01*
X948441Y39474D01*
X947792Y36209D01*
Y32880D01*
X948441Y29615D01*
X949715Y26539D01*
X951565Y23771D01*
X953336Y22000D01*
X952511Y20000D01*
X868992D01*
X868297Y21680D01*
X866738Y23239D01*
X864870Y24012D01*
Y18542D01*
X862330D01*
Y24012D01*
X860462Y23239D01*
X858903Y21680D01*
X858207Y20000D01*
X42898D01*
X37991Y20976D01*
X33369Y22891D01*
X29209Y25670D01*
X25670Y29209D01*
X22891Y33369D01*
X20976Y37991D01*
X20000Y42898D01*
X20000Y45400D01*
Y144179D01*
X21892Y144440D01*
X22735Y142404D01*
X24294Y140845D01*
X26162Y140072D01*
Y145542D01*
Y151012D01*
X24294Y150239D01*
X22735Y148680D01*
X21892Y146644D01*
X20000Y146905D01*
Y454600D01*
Y457102D01*
X20976Y462009D01*
X22891Y466631D01*
X25670Y470792D01*
X29209Y474329D01*
X33369Y477109D01*
X37991Y479024D01*
X42898Y480000D01*
X950136D01*
X951405Y478454D01*
D02*
G37*
%LPC*%
G36*
X46228Y471814D02*
Y467614D01*
X50428D01*
X49655Y469482D01*
X48096Y471041D01*
X46228Y471814D01*
D02*
G37*
G36*
X43688D02*
X41820Y471041D01*
X40261Y469482D01*
X39488Y467614D01*
X43688D01*
Y471814D01*
D02*
G37*
G36*
X697484Y468512D02*
Y464312D01*
X701684D01*
X700911Y466180D01*
X699352Y467739D01*
X697484Y468512D01*
D02*
G37*
G36*
X694944D02*
X693076Y467739D01*
X691517Y466180D01*
X690744Y464312D01*
X694944D01*
Y468512D01*
D02*
G37*
G36*
X857250Y467496D02*
Y463296D01*
X861450D01*
X860677Y465164D01*
X859118Y466723D01*
X857250Y467496D01*
D02*
G37*
G36*
X854710D02*
X852842Y466723D01*
X851283Y465164D01*
X850510Y463296D01*
X854710D01*
Y467496D01*
D02*
G37*
G36*
X50428Y465074D02*
X46228D01*
Y460874D01*
X48096Y461647D01*
X49655Y463206D01*
X50428Y465074D01*
D02*
G37*
G36*
X43688D02*
X39488D01*
X40261Y463206D01*
X41820Y461647D01*
X43688Y460874D01*
Y465074D01*
D02*
G37*
G36*
X262776Y466900D02*
X261224D01*
X259791Y466306D01*
X258694Y465209D01*
X258100Y463776D01*
Y462224D01*
X258694Y460791D01*
X259791Y459694D01*
X261224Y459100D01*
X262776D01*
X264209Y459694D01*
X265306Y460791D01*
X265900Y462224D01*
Y463776D01*
X265306Y465209D01*
X264209Y466306D01*
X262776Y466900D01*
D02*
G37*
G36*
X701684Y461772D02*
X697484D01*
Y457572D01*
X699352Y458345D01*
X700911Y459904D01*
X701684Y461772D01*
D02*
G37*
G36*
X694944D02*
X690744D01*
X691517Y459904D01*
X693076Y458345D01*
X694944Y457572D01*
Y461772D01*
D02*
G37*
G36*
X861450Y460756D02*
X857250D01*
Y456556D01*
X859118Y457329D01*
X860677Y458888D01*
X861450Y460756D01*
D02*
G37*
G36*
X854710D02*
X850510D01*
X851283Y458888D01*
X852842Y457329D01*
X854710Y456556D01*
Y460756D01*
D02*
G37*
G36*
X534430Y463132D02*
X532878D01*
X531445Y462538D01*
X530348Y461441D01*
X529754Y460008D01*
Y458456D01*
X530348Y457023D01*
X531445Y455926D01*
X532878Y455332D01*
X534430D01*
X535863Y455926D01*
X536960Y457023D01*
X537554Y458456D01*
Y460008D01*
X536960Y461441D01*
X535863Y462538D01*
X534430Y463132D01*
D02*
G37*
G36*
X584722Y462370D02*
X583170D01*
X581737Y461776D01*
X580640Y460679D01*
X580046Y459246D01*
Y457694D01*
X580640Y456261D01*
X581737Y455164D01*
X583170Y454570D01*
X584722D01*
X586155Y455164D01*
X587252Y456261D01*
X587846Y457694D01*
Y459246D01*
X587252Y460679D01*
X586155Y461776D01*
X584722Y462370D01*
D02*
G37*
G36*
X368537Y449534D02*
X365862D01*
X365741Y449484D01*
X365610Y449501D01*
X363026Y448809D01*
X362922Y448728D01*
X362791Y448711D01*
X360474Y447374D01*
X360394Y447269D01*
X360273Y447219D01*
X358381Y445327D01*
X358331Y445206D01*
X358226Y445126D01*
X356889Y442809D01*
X356871Y442678D01*
X356791Y442574D01*
X356099Y439990D01*
X356116Y439859D01*
X356066Y439738D01*
Y437062D01*
X356116Y436941D01*
X356099Y436810D01*
X356791Y434226D01*
X356871Y434122D01*
X356889Y433991D01*
X358226Y431675D01*
X358331Y431595D01*
X358381Y431473D01*
X360273Y429581D01*
X360394Y429531D01*
X360474Y429426D01*
X362791Y428089D01*
X362922Y428072D01*
X363026Y427991D01*
X365610Y427299D01*
X365741Y427316D01*
X365862Y427266D01*
X368537D01*
X368659Y427316D01*
X368790Y427299D01*
X371374Y427991D01*
X371478Y428072D01*
X371609Y428089D01*
X373925Y429426D01*
X374006Y429531D01*
X374127Y429581D01*
X376019Y431473D01*
X376069Y431595D01*
X376174Y431675D01*
X377511Y433991D01*
X377528Y434122D01*
X377608Y434226D01*
X378301Y436810D01*
X378284Y436941D01*
X378334Y437062D01*
Y439738D01*
X378284Y439859D01*
X378301Y439990D01*
X377608Y442574D01*
X377528Y442678D01*
X377511Y442809D01*
X376174Y445126D01*
X376069Y445206D01*
X376019Y445327D01*
X374127Y447219D01*
X374006Y447269D01*
X373925Y447374D01*
X371609Y448711D01*
X371478Y448728D01*
X371374Y448809D01*
X368790Y449501D01*
X368659Y449484D01*
X368537Y449534D01*
D02*
G37*
G36*
X135538D02*
X132863D01*
X132741Y449484D01*
X132611Y449501D01*
X130027Y448809D01*
X129922Y448728D01*
X129792Y448711D01*
X127475Y447374D01*
X127395Y447269D01*
X127273Y447219D01*
X125381Y445327D01*
X125331Y445206D01*
X125227Y445126D01*
X123889Y442809D01*
X123872Y442678D01*
X123792Y442574D01*
X123099Y439990D01*
X123117Y439859D01*
X123066Y439738D01*
Y437062D01*
X123117Y436941D01*
X123099Y436810D01*
X123792Y434226D01*
X123872Y434122D01*
X123889Y433991D01*
X125227Y431675D01*
X125331Y431595D01*
X125381Y431473D01*
X127273Y429581D01*
X127395Y429531D01*
X127475Y429426D01*
X129792Y428089D01*
X129922Y428072D01*
X130027Y427991D01*
X132611Y427299D01*
X132741Y427316D01*
X132863Y427266D01*
X135538D01*
X135660Y427316D01*
X135790Y427299D01*
X138374Y427991D01*
X138478Y428072D01*
X138609Y428089D01*
X140926Y429426D01*
X141006Y429531D01*
X141128Y429581D01*
X143019Y431473D01*
X143070Y431595D01*
X143174Y431675D01*
X144512Y433991D01*
X144529Y434122D01*
X144609Y434226D01*
X145301Y436810D01*
X145284Y436941D01*
X145335Y437062D01*
Y439738D01*
X145284Y439859D01*
X145301Y439990D01*
X144609Y442574D01*
X144529Y442678D01*
X144512Y442809D01*
X143174Y445126D01*
X143070Y445206D01*
X143019Y445327D01*
X141128Y447219D01*
X141006Y447269D01*
X140926Y447374D01*
X138609Y448711D01*
X138478Y448728D01*
X138374Y448809D01*
X135790Y449501D01*
X135660Y449484D01*
X135538Y449534D01*
D02*
G37*
G36*
X194270Y450470D02*
Y446270D01*
X198470D01*
X197697Y448138D01*
X196138Y449697D01*
X194270Y450470D01*
D02*
G37*
G36*
X191730D02*
X189862Y449697D01*
X188303Y448138D01*
X187530Y446270D01*
X191730D01*
Y450470D01*
D02*
G37*
G36*
X214119Y455540D02*
X213870D01*
Y445270D01*
X224140D01*
Y445519D01*
X223354Y448454D01*
X221834Y451086D01*
X219686Y453234D01*
X217054Y454753D01*
X214119Y455540D01*
D02*
G37*
G36*
X211330D02*
X211081D01*
X208146Y454753D01*
X205514Y453234D01*
X203366Y451086D01*
X201847Y448454D01*
X201060Y445519D01*
Y445270D01*
X211330D01*
Y455540D01*
D02*
G37*
G36*
X420370Y447430D02*
Y443230D01*
X424570D01*
X423797Y445098D01*
X422238Y446657D01*
X420370Y447430D01*
D02*
G37*
G36*
X417830D02*
X415962Y446657D01*
X414403Y445098D01*
X413630Y443230D01*
X417830D01*
Y447430D01*
D02*
G37*
G36*
X619776Y449900D02*
X618224D01*
X616791Y449306D01*
X615694Y448209D01*
X615100Y446776D01*
Y445224D01*
X615694Y443791D01*
X616791Y442694D01*
X618224Y442100D01*
X619776D01*
X621209Y442694D01*
X622306Y443791D01*
X622900Y445224D01*
Y446776D01*
X622306Y448209D01*
X621209Y449306D01*
X619776Y449900D01*
D02*
G37*
G36*
X306776Y447900D02*
X305224D01*
X303791Y447306D01*
X302694Y446209D01*
X302100Y444776D01*
Y443224D01*
X302694Y441791D01*
X303791Y440694D01*
X305224Y440100D01*
X306776D01*
X308209Y440694D01*
X309306Y441791D01*
X309900Y443224D01*
Y444776D01*
X309306Y446209D01*
X308209Y447306D01*
X306776Y447900D01*
D02*
G37*
G36*
X198470Y443730D02*
X194270D01*
Y439530D01*
X196138Y440303D01*
X197697Y441862D01*
X198470Y443730D01*
D02*
G37*
G36*
X191730D02*
X187530D01*
X188303Y441862D01*
X189862Y440303D01*
X191730Y439530D01*
Y443730D01*
D02*
G37*
G36*
X67818Y443620D02*
Y439420D01*
X72018D01*
X71245Y441288D01*
X69686Y442847D01*
X67818Y443620D01*
D02*
G37*
G36*
X65278D02*
X63410Y442847D01*
X61851Y441288D01*
X61078Y439420D01*
X65278D01*
Y443620D01*
D02*
G37*
G36*
X424570Y440690D02*
X420370D01*
Y436490D01*
X422238Y437263D01*
X423797Y438822D01*
X424570Y440690D01*
D02*
G37*
G36*
X417830D02*
X413630D01*
X414403Y438822D01*
X415962Y437263D01*
X417830Y436490D01*
Y440690D01*
D02*
G37*
G36*
X290103Y453900D02*
X287497D01*
X284979Y453225D01*
X282721Y451922D01*
X280878Y450079D01*
X279575Y447821D01*
X278900Y445303D01*
Y442697D01*
X279575Y440179D01*
X280878Y437921D01*
X282721Y436078D01*
X284979Y434775D01*
X287497Y434100D01*
X290103D01*
X292621Y434775D01*
X294879Y436078D01*
X296722Y437921D01*
X298025Y440179D01*
X298700Y442697D01*
Y445303D01*
X298025Y447821D01*
X296722Y450079D01*
X294879Y451922D01*
X292621Y453225D01*
X290103Y453900D01*
D02*
G37*
G36*
X264703D02*
X262097D01*
X259579Y453225D01*
X257321Y451922D01*
X255478Y450079D01*
X254175Y447821D01*
X253500Y445303D01*
Y442697D01*
X254175Y440179D01*
X255478Y437921D01*
X257321Y436078D01*
X259579Y434775D01*
X262097Y434100D01*
X264703D01*
X267221Y434775D01*
X269479Y436078D01*
X271322Y437921D01*
X272625Y440179D01*
X273300Y442697D01*
Y445303D01*
X272625Y447821D01*
X271322Y450079D01*
X269479Y451922D01*
X267221Y453225D01*
X264703Y453900D01*
D02*
G37*
G36*
X239303D02*
X236697D01*
X234179Y453225D01*
X231921Y451922D01*
X230078Y450079D01*
X228775Y447821D01*
X228100Y445303D01*
Y442697D01*
X228775Y440179D01*
X230078Y437921D01*
X231921Y436078D01*
X234179Y434775D01*
X236697Y434100D01*
X239303D01*
X241821Y434775D01*
X244079Y436078D01*
X245922Y437921D01*
X247225Y440179D01*
X247900Y442697D01*
Y445303D01*
X247225Y447821D01*
X245922Y450079D01*
X244079Y451922D01*
X241821Y453225D01*
X239303Y453900D01*
D02*
G37*
G36*
X72018Y436880D02*
X67818D01*
Y432680D01*
X69686Y433453D01*
X71245Y435012D01*
X72018Y436880D01*
D02*
G37*
G36*
X65278D02*
X61078D01*
X61851Y435012D01*
X63410Y433453D01*
X65278Y432680D01*
Y436880D01*
D02*
G37*
G36*
X224140Y442730D02*
X213870D01*
Y432460D01*
X214119D01*
X217054Y433246D01*
X219686Y434766D01*
X221834Y436914D01*
X223354Y439546D01*
X224140Y442481D01*
Y442730D01*
D02*
G37*
G36*
X211330D02*
X201060D01*
Y442481D01*
X201847Y439546D01*
X203366Y436914D01*
X205514Y434766D01*
X208146Y433246D01*
X211081Y432460D01*
X211330D01*
Y442730D01*
D02*
G37*
G36*
X48230Y410429D02*
X46645Y409773D01*
X45227Y408355D01*
X45082Y408005D01*
X42918D01*
X42773Y408355D01*
X41355Y409773D01*
X39770Y410429D01*
Y405500D01*
X38500D01*
Y404230D01*
X33571D01*
X34227Y402645D01*
X35645Y401227D01*
X35995Y401082D01*
Y398918D01*
X35645Y398773D01*
X34227Y397355D01*
X33571Y395770D01*
X38500D01*
Y394500D01*
X39770D01*
Y389571D01*
X41355Y390227D01*
X42773Y391645D01*
X42918Y391995D01*
X45082D01*
X45227Y391645D01*
X46645Y390227D01*
X48230Y389571D01*
Y394500D01*
X49500D01*
Y395770D01*
X54429D01*
X53773Y397355D01*
X52355Y398773D01*
X52005Y398918D01*
Y401082D01*
X52355Y401227D01*
X53773Y402645D01*
X54429Y404230D01*
X49500D01*
Y405500D01*
X48230D01*
Y410429D01*
D02*
G37*
G36*
X50770D02*
Y406770D01*
X54429D01*
X53773Y408355D01*
X52355Y409773D01*
X50770Y410429D01*
D02*
G37*
G36*
X37230D02*
X35645Y409773D01*
X34227Y408355D01*
X33571Y406770D01*
X37230D01*
Y410429D01*
D02*
G37*
G36*
X529665Y414465D02*
X518870D01*
Y403670D01*
X529665D01*
Y414465D01*
D02*
G37*
G36*
X516330D02*
X505535D01*
Y403670D01*
X516330D01*
Y414465D01*
D02*
G37*
G36*
X959825Y412825D02*
X938975D01*
Y391975D01*
X959825D01*
Y412825D01*
D02*
G37*
G36*
X934425D02*
X913575D01*
Y391975D01*
X934425D01*
Y412825D01*
D02*
G37*
G36*
X909025D02*
X888175D01*
Y391975D01*
X909025D01*
Y412825D01*
D02*
G37*
G36*
X883625D02*
X862775D01*
Y391975D01*
X883625D01*
Y412825D01*
D02*
G37*
G36*
X858225D02*
X837375D01*
Y391975D01*
X858225D01*
Y412825D01*
D02*
G37*
G36*
X832825D02*
X811975D01*
Y391975D01*
X832825D01*
Y412825D01*
D02*
G37*
G36*
X807425D02*
X786575D01*
Y391975D01*
X807425D01*
Y412825D01*
D02*
G37*
G36*
X782025D02*
X761175D01*
Y391975D01*
X782025D01*
Y412825D01*
D02*
G37*
G36*
X756625D02*
X735775D01*
Y391975D01*
X756625D01*
Y412825D01*
D02*
G37*
G36*
X731225D02*
X710375D01*
Y391975D01*
X731225D01*
Y412825D01*
D02*
G37*
G36*
X705825D02*
X684975D01*
Y391975D01*
X705825D01*
Y412825D01*
D02*
G37*
G36*
X680425D02*
X659575D01*
Y391975D01*
X680425D01*
Y412825D01*
D02*
G37*
G36*
X655025D02*
X634175D01*
Y391975D01*
X655025D01*
Y412825D01*
D02*
G37*
G36*
X629625D02*
X608775D01*
Y391975D01*
X629625D01*
Y412825D01*
D02*
G37*
G36*
X604225D02*
X583375D01*
Y391975D01*
X604225D01*
Y412825D01*
D02*
G37*
G36*
X578825D02*
X557975D01*
Y391975D01*
X578825D01*
Y412825D01*
D02*
G37*
G36*
X553425D02*
X532575D01*
Y391975D01*
X553425D01*
Y412825D01*
D02*
G37*
G36*
X502625D02*
X481775D01*
Y391975D01*
X502625D01*
Y412825D01*
D02*
G37*
G36*
X529665Y401130D02*
X518870D01*
Y390335D01*
X529665D01*
Y401130D01*
D02*
G37*
G36*
X516330D02*
X505535D01*
Y390335D01*
X516330D01*
Y401130D01*
D02*
G37*
G36*
X54429Y393230D02*
X50770D01*
Y389571D01*
X52355Y390227D01*
X53773Y391645D01*
X54429Y393230D01*
D02*
G37*
G36*
X37230D02*
X33571D01*
X34227Y391645D01*
X35645Y390227D01*
X37230Y389571D01*
Y393230D01*
D02*
G37*
G36*
X96776Y377900D02*
X95224D01*
X93791Y377306D01*
X92694Y376209D01*
X92100Y374776D01*
Y373224D01*
X92694Y371791D01*
X93791Y370694D01*
X95224Y370100D01*
X96776D01*
X98209Y370694D01*
X99306Y371791D01*
X99900Y373224D01*
Y374776D01*
X99306Y376209D01*
X98209Y377306D01*
X96776Y377900D01*
D02*
G37*
G36*
X27776Y372900D02*
X26224D01*
X24791Y372306D01*
X23694Y371209D01*
X23100Y369776D01*
Y368224D01*
X23694Y366791D01*
X24791Y365694D01*
X26224Y365100D01*
X27776D01*
X29209Y365694D01*
X30306Y366791D01*
X30900Y368224D01*
Y369776D01*
X30306Y371209D01*
X29209Y372306D01*
X27776Y372900D01*
D02*
G37*
G36*
X51576Y372454D02*
X50024D01*
X48591Y371860D01*
X47494Y370763D01*
X46900Y369330D01*
Y367778D01*
X47494Y366345D01*
X48591Y365248D01*
X50024Y364654D01*
X51576D01*
X53009Y365248D01*
X54106Y366345D01*
X54700Y367778D01*
Y369330D01*
X54106Y370763D01*
X53009Y371860D01*
X51576Y372454D01*
D02*
G37*
G36*
X60960Y348624D02*
Y344424D01*
X65160D01*
X64387Y346292D01*
X62828Y347851D01*
X60960Y348624D01*
D02*
G37*
G36*
X58420D02*
X56552Y347851D01*
X54993Y346292D01*
X54220Y344424D01*
X58420D01*
Y348624D01*
D02*
G37*
G36*
X65160Y341884D02*
X60960D01*
Y337684D01*
X62828Y338457D01*
X64387Y340016D01*
X65160Y341884D01*
D02*
G37*
G36*
X58420D02*
X54220D01*
X54993Y340016D01*
X56552Y338457D01*
X58420Y337684D01*
Y341884D01*
D02*
G37*
G36*
X44704Y290458D02*
Y286258D01*
X48904D01*
X48131Y288126D01*
X46572Y289685D01*
X44704Y290458D01*
D02*
G37*
G36*
X42164D02*
X40296Y289685D01*
X38737Y288126D01*
X37964Y286258D01*
X42164D01*
Y290458D01*
D02*
G37*
G36*
X48904Y283718D02*
X44704D01*
Y279518D01*
X46572Y280291D01*
X48131Y281850D01*
X48904Y283718D01*
D02*
G37*
G36*
X42164D02*
X37964D01*
X38737Y281850D01*
X40296Y280291D01*
X42164Y279518D01*
Y283718D01*
D02*
G37*
G36*
X449072Y274710D02*
Y270510D01*
X453272D01*
X452499Y272378D01*
X450940Y273937D01*
X449072Y274710D01*
D02*
G37*
G36*
X446532D02*
X444664Y273937D01*
X443105Y272378D01*
X442332Y270510D01*
X446532D01*
Y274710D01*
D02*
G37*
G36*
X453272Y267970D02*
X449072D01*
Y263770D01*
X450940Y264543D01*
X452499Y266102D01*
X453272Y267970D01*
D02*
G37*
G36*
X446532D02*
X442332D01*
X443105Y266102D01*
X444664Y264543D01*
X446532Y263770D01*
Y267970D01*
D02*
G37*
G36*
X961465Y262065D02*
X950670D01*
Y251270D01*
X961465D01*
Y262065D01*
D02*
G37*
G36*
X948130D02*
X937335D01*
Y251270D01*
X948130D01*
Y262065D01*
D02*
G37*
G36*
X934425Y260425D02*
X913575D01*
Y239575D01*
X934425D01*
Y260425D01*
D02*
G37*
G36*
X909025D02*
X888175D01*
Y239575D01*
X909025D01*
Y260425D01*
D02*
G37*
G36*
X883625D02*
X862775D01*
Y239575D01*
X883625D01*
Y260425D01*
D02*
G37*
G36*
X858225D02*
X837375D01*
Y239575D01*
X858225D01*
Y260425D01*
D02*
G37*
G36*
X832825D02*
X811975D01*
Y239575D01*
X832825D01*
Y260425D01*
D02*
G37*
G36*
X807425D02*
X786575D01*
Y239575D01*
X807425D01*
Y260425D01*
D02*
G37*
G36*
X782025D02*
X761175D01*
Y239575D01*
X782025D01*
Y260425D01*
D02*
G37*
G36*
X756625D02*
X735775D01*
Y239575D01*
X756625D01*
Y260425D01*
D02*
G37*
G36*
X731225D02*
X710375D01*
Y239575D01*
X731225D01*
Y260425D01*
D02*
G37*
G36*
X705825D02*
X684975D01*
Y239575D01*
X705825D01*
Y260425D01*
D02*
G37*
G36*
X680425D02*
X659575D01*
Y239575D01*
X680425D01*
Y260425D01*
D02*
G37*
G36*
X655025D02*
X634175D01*
Y239575D01*
X655025D01*
Y260425D01*
D02*
G37*
G36*
X629625D02*
X608775D01*
Y239575D01*
X629625D01*
Y260425D01*
D02*
G37*
G36*
X604225D02*
X583375D01*
Y239575D01*
X604225D01*
Y260425D01*
D02*
G37*
G36*
X578825D02*
X557975D01*
Y239575D01*
X578825D01*
Y260425D01*
D02*
G37*
G36*
X553425D02*
X532575D01*
Y239575D01*
X553425D01*
Y260425D01*
D02*
G37*
G36*
X528025D02*
X507175D01*
Y239575D01*
X528025D01*
Y260425D01*
D02*
G37*
G36*
X502625D02*
X481775D01*
Y239575D01*
X502625D01*
Y260425D01*
D02*
G37*
G36*
X45606Y273186D02*
X42277D01*
X39012Y272537D01*
X35937Y271263D01*
X33169Y269413D01*
X30815Y267059D01*
X28965Y264291D01*
X27692Y261215D01*
X27042Y257950D01*
Y254622D01*
X27692Y251357D01*
X28965Y248281D01*
X30815Y245513D01*
X33169Y243159D01*
X35937Y241309D01*
X39012Y240035D01*
X42277Y239386D01*
X45606D01*
X48871Y240035D01*
X51947Y241309D01*
X54715Y243159D01*
X57069Y245513D01*
X58919Y248281D01*
X60192Y251357D01*
X60842Y254622D01*
Y257950D01*
X60192Y261215D01*
X58919Y264291D01*
X57069Y267059D01*
X54715Y269413D01*
X51947Y271263D01*
X48871Y272537D01*
X45606Y273186D01*
D02*
G37*
G36*
X961465Y248730D02*
X950670D01*
Y237935D01*
X961465D01*
Y248730D01*
D02*
G37*
G36*
X948130D02*
X937335D01*
Y237935D01*
X948130D01*
Y248730D01*
D02*
G37*
G36*
X426212Y238388D02*
Y234188D01*
X430412D01*
X429639Y236056D01*
X428080Y237615D01*
X426212Y238388D01*
D02*
G37*
G36*
X423672D02*
X421804Y237615D01*
X420245Y236056D01*
X419472Y234188D01*
X423672D01*
Y238388D01*
D02*
G37*
G36*
X950214Y233054D02*
Y228854D01*
X954414D01*
X953641Y230722D01*
X952082Y232281D01*
X950214Y233054D01*
D02*
G37*
G36*
X947674D02*
X945806Y232281D01*
X944247Y230722D01*
X943474Y228854D01*
X947674D01*
Y233054D01*
D02*
G37*
G36*
X430412Y231648D02*
X426212D01*
Y227448D01*
X428080Y228221D01*
X429639Y229780D01*
X430412Y231648D01*
D02*
G37*
G36*
X423672D02*
X419472D01*
X420245Y229780D01*
X421804Y228221D01*
X423672Y227448D01*
Y231648D01*
D02*
G37*
G36*
X43434Y228482D02*
Y224282D01*
X47634D01*
X46861Y226150D01*
X45302Y227709D01*
X43434Y228482D01*
D02*
G37*
G36*
X40894D02*
X39026Y227709D01*
X37467Y226150D01*
X36694Y224282D01*
X40894D01*
Y228482D01*
D02*
G37*
G36*
X954414Y226314D02*
X950214D01*
Y222114D01*
X952082Y222887D01*
X953641Y224446D01*
X954414Y226314D01*
D02*
G37*
G36*
X947674D02*
X943474D01*
X944247Y224446D01*
X945806Y222887D01*
X947674Y222114D01*
Y226314D01*
D02*
G37*
G36*
X47634Y221742D02*
X43434D01*
Y217542D01*
X45302Y218315D01*
X46861Y219874D01*
X47634Y221742D01*
D02*
G37*
G36*
X40894D02*
X36694D01*
X37467Y219874D01*
X39026Y218315D01*
X40894Y217542D01*
Y221742D01*
D02*
G37*
G36*
X368537Y211535D02*
X365862D01*
X365741Y211484D01*
X365610Y211502D01*
X363026Y210809D01*
X362922Y210729D01*
X362791Y210712D01*
X360474Y209374D01*
X360394Y209270D01*
X360273Y209219D01*
X358381Y207328D01*
X358331Y207206D01*
X358226Y207126D01*
X356889Y204809D01*
X356871Y204679D01*
X356791Y204574D01*
X356099Y201990D01*
X356116Y201860D01*
X356066Y201738D01*
Y199063D01*
X356116Y198941D01*
X356099Y198811D01*
X356791Y196227D01*
X356871Y196122D01*
X356889Y195992D01*
X358226Y193675D01*
X358331Y193595D01*
X358381Y193473D01*
X360273Y191582D01*
X360394Y191531D01*
X360474Y191427D01*
X362791Y190089D01*
X362922Y190072D01*
X363026Y189992D01*
X365610Y189300D01*
X365741Y189317D01*
X365862Y189266D01*
X368537D01*
X368659Y189317D01*
X368790Y189300D01*
X371374Y189992D01*
X371478Y190072D01*
X371609Y190089D01*
X373925Y191427D01*
X374006Y191531D01*
X374127Y191582D01*
X376019Y193473D01*
X376069Y193595D01*
X376174Y193675D01*
X377511Y195992D01*
X377528Y196122D01*
X377608Y196227D01*
X378301Y198811D01*
X378284Y198941D01*
X378334Y199063D01*
Y201738D01*
X378284Y201860D01*
X378301Y201990D01*
X377608Y204574D01*
X377528Y204679D01*
X377511Y204809D01*
X376174Y207126D01*
X376069Y207206D01*
X376019Y207328D01*
X374127Y209219D01*
X374006Y209270D01*
X373925Y209374D01*
X371609Y210712D01*
X371478Y210729D01*
X371374Y210809D01*
X368790Y211502D01*
X368659Y211484D01*
X368537Y211535D01*
D02*
G37*
G36*
X135538D02*
X132863D01*
X132741Y211484D01*
X132611Y211502D01*
X130027Y210809D01*
X129922Y210729D01*
X129792Y210712D01*
X127475Y209374D01*
X127395Y209270D01*
X127273Y209219D01*
X125381Y207328D01*
X125331Y207206D01*
X125227Y207126D01*
X123889Y204809D01*
X123872Y204679D01*
X123792Y204574D01*
X123099Y201990D01*
X123117Y201860D01*
X123066Y201738D01*
Y199063D01*
X123117Y198941D01*
X123099Y198811D01*
X123792Y196227D01*
X123872Y196122D01*
X123889Y195992D01*
X125227Y193675D01*
X125331Y193595D01*
X125381Y193473D01*
X127273Y191582D01*
X127395Y191531D01*
X127475Y191427D01*
X129792Y190089D01*
X129922Y190072D01*
X130027Y189992D01*
X132611Y189300D01*
X132741Y189317D01*
X132863Y189266D01*
X135538D01*
X135660Y189317D01*
X135790Y189300D01*
X138374Y189992D01*
X138478Y190072D01*
X138609Y190089D01*
X140926Y191427D01*
X141006Y191531D01*
X141128Y191582D01*
X143019Y193473D01*
X143070Y193595D01*
X143174Y193675D01*
X144512Y195992D01*
X144529Y196122D01*
X144609Y196227D01*
X145301Y198811D01*
X145284Y198941D01*
X145335Y199063D01*
Y201738D01*
X145284Y201860D01*
X145301Y201990D01*
X144609Y204574D01*
X144529Y204679D01*
X144512Y204809D01*
X143174Y207126D01*
X143070Y207206D01*
X143019Y207328D01*
X141128Y209219D01*
X141006Y209270D01*
X140926Y209374D01*
X138609Y210712D01*
X138478Y210729D01*
X138374Y210809D01*
X135790Y211502D01*
X135660Y211484D01*
X135538Y211535D01*
D02*
G37*
G36*
X720776Y217900D02*
X719224D01*
X717791Y217306D01*
X716694Y216209D01*
X716100Y214776D01*
Y213224D01*
X716694Y211791D01*
X717791Y210694D01*
X719224Y210100D01*
X720776D01*
X722209Y210694D01*
X723306Y211791D01*
X723900Y213224D01*
Y214776D01*
X723306Y216209D01*
X722209Y217306D01*
X720776Y217900D01*
D02*
G37*
G36*
X517906Y182508D02*
Y178308D01*
X522106D01*
X521333Y180176D01*
X519774Y181735D01*
X517906Y182508D01*
D02*
G37*
G36*
X515366D02*
X513498Y181735D01*
X511939Y180176D01*
X511166Y178308D01*
X515366D01*
Y182508D01*
D02*
G37*
G36*
X522106Y175768D02*
X517906D01*
Y171568D01*
X519774Y172341D01*
X521333Y173900D01*
X522106Y175768D01*
D02*
G37*
G36*
X515366D02*
X511166D01*
X511939Y173900D01*
X513498Y172341D01*
X515366Y171568D01*
Y175768D01*
D02*
G37*
G36*
X163576Y173872D02*
Y169672D01*
X167776D01*
X167003Y171540D01*
X165444Y173099D01*
X163576Y173872D01*
D02*
G37*
G36*
X161036D02*
X159168Y173099D01*
X157609Y171540D01*
X156836Y169672D01*
X161036D01*
Y173872D01*
D02*
G37*
G36*
X834136Y172094D02*
Y167894D01*
X838336D01*
X837563Y169762D01*
X836004Y171321D01*
X834136Y172094D01*
D02*
G37*
G36*
X831596D02*
X829728Y171321D01*
X828169Y169762D01*
X827396Y167894D01*
X831596D01*
Y172094D01*
D02*
G37*
G36*
X352044Y170570D02*
Y166370D01*
X356244D01*
X355471Y168238D01*
X353912Y169797D01*
X352044Y170570D01*
D02*
G37*
G36*
X349504D02*
X347636Y169797D01*
X346077Y168238D01*
X345304Y166370D01*
X349504D01*
Y170570D01*
D02*
G37*
G36*
X635000Y170062D02*
Y165862D01*
X639200D01*
X638427Y167730D01*
X636868Y169289D01*
X635000Y170062D01*
D02*
G37*
G36*
X632460D02*
X630592Y169289D01*
X629033Y167730D01*
X628260Y165862D01*
X632460D01*
Y170062D01*
D02*
G37*
G36*
X167776Y167132D02*
X163576D01*
Y162932D01*
X165444Y163705D01*
X167003Y165264D01*
X167776Y167132D01*
D02*
G37*
G36*
X161036D02*
X156836D01*
X157609Y165264D01*
X159168Y163705D01*
X161036Y162932D01*
Y167132D01*
D02*
G37*
G36*
X838336Y165354D02*
X834136D01*
Y161154D01*
X836004Y161927D01*
X837563Y163486D01*
X838336Y165354D01*
D02*
G37*
G36*
X831596D02*
X827396D01*
X828169Y163486D01*
X829728Y161927D01*
X831596Y161154D01*
Y165354D01*
D02*
G37*
G36*
X356244Y163830D02*
X352044D01*
Y159630D01*
X353912Y160403D01*
X355471Y161962D01*
X356244Y163830D01*
D02*
G37*
G36*
X349504D02*
X345304D01*
X346077Y161962D01*
X347636Y160403D01*
X349504Y159630D01*
Y163830D01*
D02*
G37*
G36*
X639200Y163322D02*
X635000D01*
Y159122D01*
X636868Y159895D01*
X638427Y161454D01*
X639200Y163322D01*
D02*
G37*
G36*
X632460D02*
X628260D01*
X629033Y161454D01*
X630592Y159895D01*
X632460Y159122D01*
Y163322D01*
D02*
G37*
G36*
X732270Y156470D02*
Y152270D01*
X736470D01*
X735697Y154138D01*
X734138Y155697D01*
X732270Y156470D01*
D02*
G37*
G36*
X729730D02*
X727862Y155697D01*
X726303Y154138D01*
X725530Y152270D01*
X729730D01*
Y156470D01*
D02*
G37*
G36*
X28702Y151012D02*
Y146812D01*
X32902D01*
X32129Y148680D01*
X30570Y150239D01*
X28702Y151012D01*
D02*
G37*
G36*
X736470Y149730D02*
X732270D01*
Y145530D01*
X734138Y146303D01*
X735697Y147862D01*
X736470Y149730D01*
D02*
G37*
G36*
X729730D02*
X725530D01*
X726303Y147862D01*
X727862Y146303D01*
X729730Y145530D01*
Y149730D01*
D02*
G37*
G36*
X32902Y144272D02*
X28702D01*
Y140072D01*
X30570Y140845D01*
X32129Y142404D01*
X32902Y144272D01*
D02*
G37*
G36*
X782270Y107470D02*
Y103270D01*
X786470D01*
X785697Y105138D01*
X784138Y106697D01*
X782270Y107470D01*
D02*
G37*
G36*
X779730D02*
X777862Y106697D01*
X776303Y105138D01*
X775530Y103270D01*
X779730D01*
Y107470D01*
D02*
G37*
G36*
X786470Y100730D02*
X782270D01*
Y96530D01*
X784138Y97303D01*
X785697Y98862D01*
X786470Y100730D01*
D02*
G37*
G36*
X779730D02*
X775530D01*
X776303Y98862D01*
X777862Y97303D01*
X779730Y96530D01*
Y100730D01*
D02*
G37*
G36*
X790776Y93900D02*
X789224D01*
X787791Y93306D01*
X786694Y92209D01*
X786100Y90776D01*
Y89224D01*
X786694Y87791D01*
X787791Y86694D01*
X789224Y86100D01*
X790776D01*
X792209Y86694D01*
X793306Y87791D01*
X793900Y89224D01*
Y90776D01*
X793306Y92209D01*
X792209Y93306D01*
X790776Y93900D01*
D02*
G37*
G36*
X741270Y86470D02*
Y82270D01*
X745470D01*
X744697Y84138D01*
X743138Y85697D01*
X741270Y86470D01*
D02*
G37*
G36*
X738730D02*
X736862Y85697D01*
X735303Y84138D01*
X734530Y82270D01*
X738730D01*
Y86470D01*
D02*
G37*
G36*
X437642Y84972D02*
Y80772D01*
X441842D01*
X441069Y82640D01*
X439510Y84199D01*
X437642Y84972D01*
D02*
G37*
G36*
X435102D02*
X433234Y84199D01*
X431675Y82640D01*
X430902Y80772D01*
X435102D01*
Y84972D01*
D02*
G37*
G36*
X154432Y84210D02*
Y80010D01*
X158632D01*
X157859Y81878D01*
X156300Y83437D01*
X154432Y84210D01*
D02*
G37*
G36*
X151892D02*
X150024Y83437D01*
X148465Y81878D01*
X147692Y80010D01*
X151892D01*
Y84210D01*
D02*
G37*
G36*
X283210Y80146D02*
Y75946D01*
X287410D01*
X286637Y77814D01*
X285078Y79373D01*
X283210Y80146D01*
D02*
G37*
G36*
X280670D02*
X278802Y79373D01*
X277243Y77814D01*
X276470Y75946D01*
X280670D01*
Y80146D01*
D02*
G37*
G36*
X745470Y79730D02*
X741270D01*
Y75530D01*
X743138Y76303D01*
X744697Y77862D01*
X745470Y79730D01*
D02*
G37*
G36*
X738730D02*
X734530D01*
X735303Y77862D01*
X736862Y76303D01*
X738730Y75530D01*
Y79730D01*
D02*
G37*
G36*
X441842Y78232D02*
X437642D01*
Y74032D01*
X439510Y74805D01*
X441069Y76364D01*
X441842Y78232D01*
D02*
G37*
G36*
X435102D02*
X430902D01*
X431675Y76364D01*
X433234Y74805D01*
X435102Y74032D01*
Y78232D01*
D02*
G37*
G36*
X158632Y77470D02*
X154432D01*
Y73270D01*
X156300Y74043D01*
X157859Y75602D01*
X158632Y77470D01*
D02*
G37*
G36*
X151892D02*
X147692D01*
X148465Y75602D01*
X150024Y74043D01*
X151892Y73270D01*
Y77470D01*
D02*
G37*
G36*
X287410Y73406D02*
X283210D01*
Y69206D01*
X285078Y69979D01*
X286637Y71538D01*
X287410Y73406D01*
D02*
G37*
G36*
X280670D02*
X276470D01*
X277243Y71538D01*
X278802Y69979D01*
X280670Y69206D01*
Y73406D01*
D02*
G37*
G36*
X662270Y65470D02*
Y61270D01*
X666470D01*
X665697Y63138D01*
X664138Y64697D01*
X662270Y65470D01*
D02*
G37*
G36*
X659730D02*
X657862Y64697D01*
X656303Y63138D01*
X655530Y61270D01*
X659730D01*
Y65470D01*
D02*
G37*
G36*
X666470Y58730D02*
X662270D01*
Y54530D01*
X664138Y55303D01*
X665697Y56862D01*
X666470Y58730D01*
D02*
G37*
G36*
X659730D02*
X655530D01*
X656303Y56862D01*
X657862Y55303D01*
X659730Y54530D01*
Y58730D01*
D02*
G37*
G36*
X569053Y45273D02*
X566946D01*
X566825Y45223D01*
X566694Y45240D01*
X564660Y44695D01*
X564555Y44615D01*
X564425Y44598D01*
X562600Y43545D01*
X562520Y43440D01*
X562399Y43390D01*
X560909Y41900D01*
X560859Y41779D01*
X560754Y41698D01*
X559701Y39874D01*
X559684Y39744D01*
X559604Y39639D01*
X559059Y37605D01*
X559076Y37474D01*
X559025Y37353D01*
Y35246D01*
X559076Y35124D01*
X559059Y34994D01*
X559604Y32959D01*
X559684Y32855D01*
X559701Y32724D01*
X560754Y30900D01*
X560859Y30820D01*
X560909Y30698D01*
X562399Y29209D01*
X562520Y29159D01*
X562600Y29054D01*
X564425Y28001D01*
X564555Y27984D01*
X564660Y27904D01*
X566694Y27358D01*
X566825Y27376D01*
X566946Y27325D01*
X569053D01*
X569174Y27376D01*
X569305Y27358D01*
X571339Y27904D01*
X571444Y27984D01*
X571575Y28001D01*
X573399Y29054D01*
X573479Y29159D01*
X573600Y29209D01*
X575090Y30698D01*
X575140Y30820D01*
X575245Y30900D01*
X576298Y32724D01*
X576315Y32855D01*
X576395Y32959D01*
X576940Y34994D01*
X576923Y35124D01*
X576974Y35246D01*
Y37353D01*
X576923Y37474D01*
X576940Y37605D01*
X576395Y39639D01*
X576315Y39744D01*
X576298Y39874D01*
X575245Y41698D01*
X575140Y41779D01*
X575090Y41900D01*
X573600Y43390D01*
X573479Y43440D01*
X573399Y43545D01*
X571575Y44598D01*
X571444Y44615D01*
X571339Y44695D01*
X569305Y45240D01*
X569174Y45223D01*
X569053Y45273D01*
D02*
G37*
G36*
X39270Y47470D02*
Y43270D01*
X43470D01*
X42697Y45138D01*
X41138Y46697D01*
X39270Y47470D01*
D02*
G37*
G36*
X36730D02*
X34862Y46697D01*
X33303Y45138D01*
X32530Y43270D01*
X36730D01*
Y47470D01*
D02*
G37*
G36*
X762270Y41470D02*
Y37270D01*
X766470D01*
X765697Y39138D01*
X764138Y40697D01*
X762270Y41470D01*
D02*
G37*
G36*
X759730D02*
X757862Y40697D01*
X756303Y39138D01*
X755530Y37270D01*
X759730D01*
Y41470D01*
D02*
G37*
G36*
X43470Y40730D02*
X39270D01*
Y36530D01*
X41138Y37303D01*
X42697Y38862D01*
X43470Y40730D01*
D02*
G37*
G36*
X36730D02*
X32530D01*
X33303Y38862D01*
X34862Y37303D01*
X36730Y36530D01*
Y40730D01*
D02*
G37*
G36*
X641604Y35188D02*
Y30988D01*
X645804D01*
X645031Y32856D01*
X643472Y34415D01*
X641604Y35188D01*
D02*
G37*
G36*
X639064D02*
X637196Y34415D01*
X635637Y32856D01*
X634864Y30988D01*
X639064D01*
Y35188D01*
D02*
G37*
G36*
X766470Y34730D02*
X762270D01*
Y30530D01*
X764138Y31303D01*
X765697Y32862D01*
X766470Y34730D01*
D02*
G37*
G36*
X759730D02*
X755530D01*
X756303Y32862D01*
X757862Y31303D01*
X759730Y30530D01*
Y34730D01*
D02*
G37*
G36*
X645804Y28448D02*
X641604D01*
Y24248D01*
X643472Y25021D01*
X645031Y26580D01*
X645804Y28448D01*
D02*
G37*
G36*
X639064D02*
X634864D01*
X635637Y26580D01*
X637196Y25021D01*
X639064Y24248D01*
Y28448D01*
D02*
G37*
%LPD*%
D56*
X288800Y444000D02*
D03*
X263400D02*
D03*
X238000D02*
D03*
X212600D02*
D03*
D57*
X968248Y476504D02*
D03*
X964692Y34544D02*
D03*
X43942Y256286D02*
D03*
D58*
X593800Y402400D02*
D03*
X568400D02*
D03*
X492200D02*
D03*
X924000Y250000D02*
D03*
X517600Y402400D02*
D03*
X619200D02*
D03*
X974800D02*
D03*
X949400D02*
D03*
X924000D02*
D03*
X898600D02*
D03*
X873200D02*
D03*
X847800D02*
D03*
X822400D02*
D03*
X797000D02*
D03*
X771600D02*
D03*
X746200D02*
D03*
X720800D02*
D03*
X695400D02*
D03*
X670000D02*
D03*
X644600D02*
D03*
X543000D02*
D03*
X974800Y250000D02*
D03*
X949400D02*
D03*
X898600D02*
D03*
X873200D02*
D03*
X847800D02*
D03*
X822400D02*
D03*
X797000D02*
D03*
X771600D02*
D03*
X746200D02*
D03*
X720800D02*
D03*
X695400D02*
D03*
X670000D02*
D03*
X644600D02*
D03*
X619200D02*
D03*
X593800D02*
D03*
X568400D02*
D03*
X543000D02*
D03*
X517600D02*
D03*
X492200D02*
D03*
D59*
X38500Y405500D02*
D03*
X49500D02*
D03*
Y394500D02*
D03*
X38500D02*
D03*
D60*
X44958Y466344D02*
D03*
X855980Y462026D02*
D03*
X419100Y441960D02*
D03*
X948944Y227584D02*
D03*
X832866Y166624D02*
D03*
X516636Y177038D02*
D03*
X424942Y232918D02*
D03*
X350774Y165100D02*
D03*
X162306Y168402D02*
D03*
X27432Y145542D02*
D03*
X281940Y74676D02*
D03*
X66548Y438150D02*
D03*
X153162Y78740D02*
D03*
X42164Y223012D02*
D03*
X436372Y79502D02*
D03*
X633730Y164592D02*
D03*
X863600Y18542D02*
D03*
X640334Y29718D02*
D03*
X43434Y284988D02*
D03*
X696214Y463042D02*
D03*
X447802Y269240D02*
D03*
X533654Y459232D02*
D03*
X583946Y458470D02*
D03*
X50800Y368554D02*
D03*
X59690Y343154D02*
D03*
X306000Y444000D02*
D03*
X262000Y463000D02*
D03*
X27000Y369000D02*
D03*
X96000Y374000D02*
D03*
X731000Y151000D02*
D03*
X193000Y445000D02*
D03*
X781000Y102000D02*
D03*
X740000Y81000D02*
D03*
X761000Y36000D02*
D03*
X661000Y60000D02*
D03*
X38000Y42000D02*
D03*
X619000Y446000D02*
D03*
X720000Y214000D02*
D03*
X790000Y90000D02*
D03*
M02*
