G04*
G04 #@! TF.GenerationSoftware,Altium Limited,Altium Designer,25.8.1 (18)*
G04*
G04 Layer_Physical_Order=4*
G04 Layer_Color=16711680*
%FSLAX44Y44*%
%MOMM*%
G71*
G04*
G04 #@! TF.SameCoordinates,220DD8DD-A9B0-4AC3-BD9C-64780996674F*
G04*
G04*
G04 #@! TF.FilePolarity,Positive*
G04*
G01*
G75*
%ADD51C,0.3000*%
%ADD54C,0.5000*%
%ADD56C,1.8000*%
%ADD57C,1.5240*%
%ADD58R,1.9050X1.9050*%
%ADD59C,0.5000*%
%ADD60C,0.6000*%
D51*
X50800Y368554D02*
X71499Y389253D01*
Y390269D01*
X91623Y410393D01*
X417393D01*
X453000Y446000D02*
X619000D01*
X417393Y410393D02*
X453000Y446000D01*
X790000Y90000D02*
Y144000D01*
X720000Y214000D02*
X790000Y144000D01*
D54*
X582913Y459232D02*
X583675Y458470D01*
X533654Y459232D02*
X582913D01*
X583675Y458470D02*
X583946D01*
X27049Y369000D02*
X34449Y361600D01*
X83329D01*
X95729Y374000D01*
X27000Y369000D02*
X27049D01*
X262000Y463000D02*
X287000D01*
X306000Y444000D01*
X95729Y374000D02*
X96000D01*
D56*
X288800Y444000D02*
D03*
X263400D02*
D03*
X238000D02*
D03*
X212600D02*
D03*
D57*
X968248Y476504D02*
D03*
X964692Y34544D02*
D03*
X43942Y256286D02*
D03*
D58*
X593800Y402400D02*
D03*
X568400D02*
D03*
X492200D02*
D03*
X924000Y250000D02*
D03*
X517600Y402400D02*
D03*
X619200D02*
D03*
X974800D02*
D03*
X949400D02*
D03*
X924000D02*
D03*
X898600D02*
D03*
X873200D02*
D03*
X847800D02*
D03*
X822400D02*
D03*
X797000D02*
D03*
X771600D02*
D03*
X746200D02*
D03*
X720800D02*
D03*
X695400D02*
D03*
X670000D02*
D03*
X644600D02*
D03*
X543000D02*
D03*
X974800Y250000D02*
D03*
X949400D02*
D03*
X898600D02*
D03*
X873200D02*
D03*
X847800D02*
D03*
X822400D02*
D03*
X797000D02*
D03*
X771600D02*
D03*
X746200D02*
D03*
X720800D02*
D03*
X695400D02*
D03*
X670000D02*
D03*
X644600D02*
D03*
X619200D02*
D03*
X593800D02*
D03*
X568400D02*
D03*
X543000D02*
D03*
X517600D02*
D03*
X492200D02*
D03*
D59*
X38500Y405500D02*
D03*
X49500D02*
D03*
Y394500D02*
D03*
X38500D02*
D03*
D60*
X44958Y466344D02*
D03*
X855980Y462026D02*
D03*
X419100Y441960D02*
D03*
X948944Y227584D02*
D03*
X832866Y166624D02*
D03*
X516636Y177038D02*
D03*
X424942Y232918D02*
D03*
X350774Y165100D02*
D03*
X162306Y168402D02*
D03*
X27432Y145542D02*
D03*
X281940Y74676D02*
D03*
X66548Y438150D02*
D03*
X153162Y78740D02*
D03*
X42164Y223012D02*
D03*
X436372Y79502D02*
D03*
X633730Y164592D02*
D03*
X863600Y18542D02*
D03*
X640334Y29718D02*
D03*
X43434Y284988D02*
D03*
X696214Y463042D02*
D03*
X447802Y269240D02*
D03*
X533654Y459232D02*
D03*
X583946Y458470D02*
D03*
X50800Y368554D02*
D03*
X59690Y343154D02*
D03*
X306000Y444000D02*
D03*
X262000Y463000D02*
D03*
X27000Y369000D02*
D03*
X96000Y374000D02*
D03*
X731000Y151000D02*
D03*
X193000Y445000D02*
D03*
X781000Y102000D02*
D03*
X740000Y81000D02*
D03*
X761000Y36000D02*
D03*
X661000Y60000D02*
D03*
X38000Y42000D02*
D03*
X619000Y446000D02*
D03*
X720000Y214000D02*
D03*
X790000Y90000D02*
D03*
M02*
