G04*
G04 #@! TF.GenerationSoftware,Altium Limited,Altium Designer,25.8.1 (18)*
G04*
G04 Layer_Color=16711935*
%FSLAX44Y44*%
%MOMM*%
G71*
G04*
G04 #@! TF.SameCoordinates,220DD8DD-A9B0-4AC3-BD9C-64780996674F*
G04*
G04*
G04 #@! TF.FilePolarity,Positive*
G04*
G01*
G75*
%ADD61C,0.0254*%
G36*
X144360Y200401D02*
Y199063D01*
X143668Y196479D01*
X142330Y194162D01*
X140439Y192271D01*
X138122Y190933D01*
X135538Y190240D01*
X132863D01*
X130279Y190933D01*
X127962Y192271D01*
X126070Y194162D01*
X124733Y196479D01*
X124040Y199063D01*
Y200401D01*
Y201738D01*
X124733Y204322D01*
X126070Y206639D01*
X127962Y208531D01*
X130279Y209868D01*
X132863Y210560D01*
X135538D01*
X138122Y209868D01*
X140439Y208531D01*
X142330Y206639D01*
X143668Y204322D01*
X144360Y201738D01*
Y200401D01*
D01*
D01*
D02*
G37*
G36*
Y438400D02*
Y437062D01*
X143668Y434478D01*
X142330Y432162D01*
X140439Y430270D01*
X138122Y428932D01*
X135538Y428240D01*
X132863D01*
X130279Y428932D01*
X127962Y430270D01*
X126070Y432162D01*
X124733Y434478D01*
X124040Y437062D01*
Y438400D01*
Y439738D01*
X124733Y442322D01*
X126070Y444638D01*
X127962Y446530D01*
X130279Y447868D01*
X132863Y448560D01*
X135538D01*
X138122Y447868D01*
X140439Y446530D01*
X142330Y444638D01*
X143668Y442322D01*
X144360Y439738D01*
Y438400D01*
D01*
D01*
D02*
G37*
G36*
X377360Y200401D02*
Y199063D01*
X376668Y196479D01*
X375330Y194162D01*
X373438Y192271D01*
X371121Y190933D01*
X368537Y190240D01*
X365862D01*
X363278Y190933D01*
X360961Y192271D01*
X359070Y194162D01*
X357732Y196479D01*
X357040Y199063D01*
Y200401D01*
Y201738D01*
X357732Y204322D01*
X359070Y206639D01*
X360961Y208531D01*
X363278Y209868D01*
X365862Y210560D01*
X368537D01*
X371121Y209868D01*
X373438Y208531D01*
X375330Y206639D01*
X376668Y204322D01*
X377360Y201738D01*
Y200401D01*
D01*
D01*
D02*
G37*
G36*
X560000Y36299D02*
Y37353D01*
X560545Y39387D01*
X561598Y41211D01*
X563087Y42701D01*
X564912Y43754D01*
X566946Y44299D01*
X569053D01*
X571087Y43754D01*
X572912Y42701D01*
X574401Y41211D01*
X575454Y39387D01*
X575999Y37353D01*
Y36299D01*
Y35246D01*
X575454Y33211D01*
X574401Y31387D01*
X572912Y29898D01*
X571087Y28844D01*
X569053Y28299D01*
X566946D01*
X564912Y28844D01*
X563087Y29898D01*
X561598Y31387D01*
X560545Y33211D01*
X560000Y35246D01*
Y36299D01*
D01*
D01*
D02*
G37*
G36*
X377360Y438400D02*
Y437062D01*
X376668Y434478D01*
X375330Y432162D01*
X373438Y430270D01*
X371121Y428932D01*
X368537Y428240D01*
X365862D01*
X363278Y428932D01*
X360961Y430270D01*
X359070Y432162D01*
X357732Y434478D01*
X357040Y437062D01*
Y438400D01*
Y439738D01*
X357732Y442322D01*
X359070Y444638D01*
X360961Y446530D01*
X363278Y447868D01*
X365862Y448560D01*
X368537D01*
X371121Y447868D01*
X373438Y446530D01*
X375330Y444638D01*
X376668Y442322D01*
X377360Y439738D01*
Y438400D01*
D01*
D01*
D02*
G37*
D61*
X575999Y36299D02*
G03*
X575999Y36299I-8000J0D01*
G01*
X377360Y200401D02*
G03*
X377360Y200401I-10160J0D01*
G01*
X144360D02*
G03*
X144360Y200401I-10160J0D01*
G01*
X377360Y438400D02*
G03*
X377360Y438400I-10160J0D01*
G01*
X144360D02*
G03*
X144360Y438400I-10160J0D01*
G01*
M02*
